<svg width="100" height="100" viewBox="0 0 100 100" fill="none" xmlns="http://www.w3.org/2000/svg">
<circle cx="50" cy="50" r="50" fill="#FDC152"/>
<path d="M78.6682 53.6929C78.9928 51.1536 80.9513 49.8394 83.4748 50.162C85.9982 50.4846 87.5631 52.2493 87.2384 54.7886C86.9138 57.328 84.9553 58.6422 82.4319 58.3196C79.9084 57.997 78.3435 56.2323 78.6682 53.6929ZM80.0331 53.8674C79.8302 55.4545 80.9785 56.4401 82.6449 56.6531C84.3272 56.8682 85.6706 56.2012 85.8735 54.6141C86.0765 53.027 84.944 52.0435 83.2617 51.8284C81.5953 51.6154 80.236 52.2804 80.0331 53.8674Z" fill="#010101"/>
<path d="M84.8019 64.112C84.7058 64.3835 84.6213 64.5742 84.5111 64.7898L83.0178 64.2613L83.0285 64.2311C83.8241 62.7985 83.2309 61.2137 81.5868 60.6318L77.6502 59.2385L78.2107 57.6547L85.9182 60.3827L85.3576 61.9665L83.9096 61.454L83.899 61.4841C84.7201 62.233 85.1596 63.1014 84.8019 64.112Z" fill="#010101"/>
<path d="M80.6856 71.3104L79.7995 72.7376L73.3292 68.7203C71.331 67.4796 71.1987 65.7212 72.4224 63.7502C73.6631 61.7521 75.3934 61.3009 76.6552 61.8772L75.7606 63.3181C75.0645 63.0742 74.2985 63.2766 73.598 64.4048C72.8553 65.601 73.0192 66.5503 74.2698 67.3267L75.1125 67.85L75.1294 67.8228C74.8408 67.1351 74.7209 66.1755 75.4045 65.0745C76.4848 63.3346 78.5048 62.7808 80.6933 64.1396C82.8954 65.5069 83.2813 67.5545 82.201 69.2944C81.5174 70.3955 80.6042 70.7136 79.8869 70.7768L79.8701 70.804L80.6856 71.3104ZM76.4047 66.0722C75.6873 67.2276 76.0181 68.3935 77.4861 69.305C78.9542 70.2165 80.1458 69.9959 80.8632 68.8405C81.6397 67.5899 81.0984 66.3687 79.8071 65.5669C78.5294 64.7736 77.1812 64.8216 76.4047 66.0722Z" fill="#010101"/>
<path d="M73.3088 76.3305C73.7166 76.7596 74.2804 76.8418 75.0922 76.0703C76.0664 75.1444 76.1394 74.5012 75.4699 73.6806L76.6529 72.5563C77.6751 73.748 77.7931 75.3355 76.0071 77.0329C74.6965 78.2784 73.2484 78.7056 71.7493 77.1283L69.0709 74.31C68.6741 73.8925 68.3719 73.7603 67.9405 74.2586L67.3894 73.6788C67.5685 73.3098 67.7436 73.0993 67.9756 72.8788C68.625 72.2616 69.147 72.2069 69.8141 72.6766L69.8373 72.6546C69.7124 71.78 70.0434 70.7811 70.9596 69.9104C72.1658 68.764 73.5694 68.7545 74.5173 69.7519C75.7518 71.0508 75.175 72.3716 73.966 74.0724C73.2152 75.1171 72.7687 75.7622 73.3088 76.3305ZM71.6078 71.1265C70.5987 72.0854 70.3768 73.2455 71.2917 74.2081L72.1404 75.1011C72.2053 74.7746 72.5486 74.1835 73.0066 73.5274C73.8062 72.3481 73.9714 71.6393 73.3982 71.0362C72.8801 70.4911 72.2688 70.4982 71.6078 71.1265Z" fill="#010101"/>
<path d="M67.4448 83.1918C66.1111 83.9211 64.6361 83.7247 63.7379 82.0822L61.0281 77.1267L62.5162 76.313L64.9957 80.8474C65.5253 81.816 66.2702 82.2111 67.281 81.6584C68.4181 81.0366 68.7719 79.9495 68.1885 78.8826L65.8011 74.5167L67.2751 73.7107L71.1978 80.8842L69.7238 81.6903L69.2171 80.7637L69.1891 80.7791C69.1171 81.5479 68.6801 82.5163 67.4448 83.1918Z" fill="#010101"/>
<path d="M62.2876 86.6196C62.7289 86.4764 63.2842 86.6326 63.462 87.1805C63.6399 87.7283 63.2771 88.1656 62.8358 88.3089C62.364 88.462 61.8288 88.3161 61.651 87.7682C61.4732 87.2203 61.8158 86.7727 62.2876 86.6196ZM62.6542 85.054L61.0562 85.5726L58.5324 77.7959L60.1303 77.2773L62.6542 85.054Z" fill="#010101"/>
<path d="M52.5935 84.1731C52.7625 84.9902 53.4141 85.9231 54.8424 85.7405C56.4771 85.5315 56.9969 84.0456 56.8021 82.522C56.6073 80.9984 55.7463 79.689 54.0957 79.9001C52.6674 80.0827 52.2694 81.1336 52.3216 82.0464L50.6552 82.2594C50.5427 80.3704 51.8104 78.805 53.9212 78.5352C56.3495 78.2247 58.1439 79.7696 58.4685 82.309C58.7932 84.8483 57.4452 86.795 55.0328 87.1034C52.922 87.3732 51.3688 86.2008 50.9271 84.3861L52.5935 84.1731Z" fill="#010101"/>
<path d="M36.3831 86.6594C37.4074 87.0293 37.8379 87.0463 38.1143 86.1605L38.3813 85.3051L36.9455 84.8571L37.3555 83.5436L38.7912 83.9916L40.8169 77.5004L42.4359 78.0056L40.4102 84.4969L41.5251 84.8448L41.1152 86.1583L40.0003 85.8104L39.6904 86.8032C39.1757 88.4527 38.292 88.8138 37.009 88.4135C36.6119 88.2895 36.2749 88.1341 35.9732 87.9729L36.3831 86.6594Z" fill="#010101"/>
<path d="M36.2615 75.218C38.5031 76.4545 39.0042 78.7592 37.7754 80.9868C36.5466 83.2143 34.3298 84.0198 32.0883 82.7832C29.8467 81.5467 29.3456 79.242 30.5744 77.0144C31.8032 74.7869 34.0199 73.9814 36.2615 75.218ZM35.5969 76.4228C34.1959 75.65 32.8569 76.3549 32.0454 77.8259C31.2262 79.3109 31.3519 80.8056 32.7529 81.5784C34.1539 82.3512 35.4852 81.6603 36.3044 80.1753C37.1158 78.7043 36.9979 77.1956 35.5969 76.4228Z" fill="#010101"/>
<path d="M30.3165 70.8576C32.1722 72.6212 32.0737 74.9777 30.3211 76.8217C28.5686 78.6658 26.2201 78.884 24.3645 77.1204C22.5088 75.3568 22.6073 73.0003 24.3599 71.1562C26.1124 69.3122 28.4609 69.094 30.3165 70.8576ZM29.3686 71.855C28.2088 70.7528 26.735 71.0958 25.5776 72.3136C24.4093 73.543 24.1526 75.0207 25.3124 76.123C26.4722 77.2252 27.935 76.8937 29.1033 75.6644C30.2607 74.4466 30.5284 72.9572 29.3686 71.855Z" fill="#010101"/>
<path d="M14.6384 69.4648L13.7733 68.0247L23.58 62.1337L24.4451 63.5738L23.6359 64.0599L23.6523 64.0874C24.3548 64.1693 25.3017 64.5338 25.9526 65.6173C27.0319 67.414 26.4321 69.5848 24.1279 70.969C21.8237 72.3532 19.6255 71.8632 18.5462 70.0664C17.8953 68.9829 17.9908 67.9923 18.3033 67.3006L18.2868 67.2732L14.6384 69.4648ZM24.6247 66.079C23.9162 64.8994 22.5057 64.7575 20.9558 65.6885C19.3923 66.6278 18.8689 67.9314 19.5774 69.111C20.3354 70.3728 21.8912 70.3528 23.2628 69.5289C24.6344 68.705 25.3827 67.3408 24.6247 66.079Z" fill="#010101"/>
<path d="M21.4023 51.1726C21.5011 53.7307 19.7863 55.3501 17.2442 55.4482C14.702 55.5464 12.8675 54.0641 12.7687 51.506C12.6699 48.9479 14.3847 47.3285 16.9268 47.2304C19.4689 47.1322 21.3035 48.6145 21.4023 51.1726ZM20.0273 51.2257C19.9656 49.6269 18.6704 48.8443 16.9917 48.9091C15.2969 48.9745 14.082 49.8541 14.1437 51.4529C14.2054 53.0517 15.4846 53.8349 17.1793 53.7695C18.8581 53.7047 20.089 52.8245 20.0273 51.2257Z" fill="#010101"/>
<path d="M13.6517 41.7503C13.7024 41.4668 13.7548 41.2649 13.8285 41.0343L15.3878 41.3132L15.3821 41.3447C14.8299 42.8875 15.6727 44.3548 17.3894 44.6619L21.5002 45.3972L21.2044 47.051L13.1561 45.6114L13.4519 43.9576L14.9639 44.2281L14.9695 44.1966C14.0376 43.591 13.4629 42.8056 13.6517 41.7503Z" fill="#010101"/>
<path d="M16.5203 34.0154L17.1632 32.4633L24.1995 35.3776C26.3725 36.2776 26.7885 37.9912 25.9007 40.1347C25.0007 42.3076 23.3665 43.0336 22.0279 42.6696L22.6769 41.1027C23.4033 41.2304 24.1263 40.9064 24.6345 39.6795C25.1733 38.3787 24.8575 37.4686 23.4975 36.9053L22.581 36.5257L22.5688 36.5552C22.9652 37.187 23.2392 38.1144 22.7432 39.3118C21.9596 41.2039 20.0562 42.0781 17.6762 41.0924C15.2815 40.1005 14.5684 38.1427 15.3521 36.2505C15.8481 35.0532 16.6975 34.5911 17.395 34.4124L17.4073 34.3828L16.5203 34.0154ZM21.5944 38.4896C22.1148 37.2331 21.5993 36.1364 20.0028 35.4751C18.4063 34.8139 17.2663 35.2249 16.7459 36.4814C16.1826 37.8414 16.9148 38.9586 18.3191 39.5403C19.7086 40.1158 21.0311 39.8496 21.5944 38.4896Z" fill="#010101"/>
<path d="M22.9864 27.8513C22.5154 27.4926 21.9458 27.5013 21.2673 28.3924C20.453 29.4616 20.4835 30.1083 21.2752 30.8117L20.2865 32.1101C19.0875 31.0965 18.718 29.5482 20.2107 27.5878C21.306 26.1494 22.6676 25.4969 24.3988 26.8151L27.4921 29.1706C27.9504 29.5195 28.2698 29.6018 28.6163 29.0412L29.2528 29.5258C29.1347 29.9186 28.9954 30.1543 28.8016 30.4089C28.2587 31.1218 27.7521 31.2589 27.0187 30.9016L26.9993 30.927C27.262 31.7705 27.0944 32.8094 26.3287 33.815C25.3206 35.1389 23.9364 35.372 22.8417 34.5384C21.416 33.4528 21.7749 32.057 22.6974 30.1852C23.2722 29.0342 23.6102 28.3262 22.9864 27.8513ZM25.495 32.7177C26.3383 31.6102 26.3725 30.4296 25.316 29.6251L24.3358 28.8787C24.3238 29.2115 24.0791 29.8497 23.7314 30.5704C23.13 31.862 23.0799 32.5881 23.7419 33.0921C24.3401 33.5477 24.9425 33.4433 25.495 32.7177Z" fill="#010101"/>
<path d="M27.5649 20.1931C28.7606 19.2547 30.2479 19.2062 31.4036 20.6789L34.8904 25.1221L33.5562 26.1691L30.3657 22.1035C29.6842 21.235 28.8845 20.9676 27.9783 21.6788C26.9587 22.4789 26.7882 23.6093 27.5389 24.5659L30.6109 28.4805L29.2893 29.5176L24.2418 23.0857L25.5634 22.0485L26.2153 22.8793L26.2405 22.8595C26.1852 22.0893 26.4572 21.0624 27.5649 20.1931Z" fill="#010101"/>
<path d="M32.1689 15.9042C31.757 16.1178 31.1835 16.0546 30.9185 15.5432C30.6534 15.0318 30.9397 14.541 31.3516 14.3275C31.792 14.0992 32.3438 14.1556 32.6089 14.667C32.874 15.1783 32.6093 15.676 32.1689 15.9042ZM32.0635 17.5087L33.555 16.7356L37.3176 23.9944L35.8261 24.7675L32.0635 17.5087Z" fill="#010101"/>
<path d="M42.1393 16.7226C41.8391 15.944 41.044 15.13 39.6646 15.5433C38.086 16.0164 37.8158 17.5672 38.2567 19.0386C38.6976 20.5099 39.7608 21.6612 41.3548 21.1835C42.7342 20.7702 42.9552 19.6683 42.7547 18.7763L44.364 18.2941C44.7834 20.1394 43.7882 21.8907 41.7498 22.5016C39.4048 23.2043 37.3823 21.9731 36.6474 19.5208C35.9125 17.0686 36.9246 14.9279 39.2543 14.2298C41.2927 13.619 43.0165 14.5221 43.7486 16.2403L42.1393 16.7226Z" fill="#010101"/>
<path d="M57.6609 11.6233C56.5899 11.4254 56.1625 11.4788 56.0342 12.3979L55.9103 13.2853L57.3999 13.4932L57.2097 14.856L55.7201 14.6481L54.7801 21.3828L53.1004 21.1484L54.0404 14.4137L52.8836 14.2522L53.0738 12.8894L54.2306 13.0509L54.3744 12.0208C54.6132 10.3094 55.4262 9.80901 56.7573 9.9948C57.1693 10.0523 57.5271 10.1507 57.8511 10.2605L57.6609 11.6233Z" fill="#010101"/>
<path d="M59.6757 22.8774C57.2624 22.0232 56.392 19.8312 57.2408 17.4329C58.0896 15.0347 60.1453 13.8783 62.5586 14.7325C64.9718 15.5867 65.8423 17.7787 64.9935 20.177C64.1447 22.5752 62.089 23.7316 59.6757 22.8774ZM60.1348 21.5802C61.6432 22.1141 62.8492 21.2001 63.4098 19.6164C63.9757 18.0176 63.6077 16.5635 62.0994 16.0297C60.5911 15.4958 59.3904 16.3947 58.8245 17.9935C58.264 19.5772 58.6265 21.0464 60.1348 21.5802Z" fill="#010101"/>
<path d="M66.1563 26.1284C64.0377 24.6914 63.7502 22.3504 65.1782 20.245C66.6062 18.1396 68.8875 17.5409 71.0062 18.9779C73.1248 20.4149 73.4123 22.7559 71.9843 24.8613C70.5563 26.9667 68.275 27.5653 66.1563 26.1284ZM66.9287 24.9896C68.2529 25.8877 69.6509 25.3086 70.594 23.9183C71.546 22.5147 71.5579 21.0148 70.2338 20.1167C68.9096 19.2186 67.5205 19.7844 66.5685 21.188C65.6255 22.5784 65.6046 24.0915 66.9287 24.9896Z" fill="#010101"/>
<path d="M82.0232 25.0949L83.1078 26.3779L74.3712 33.7634L73.2866 32.4804L74.0075 31.871L73.9869 31.8465C73.2803 31.8781 72.2873 31.67 71.4713 30.7047C70.1181 29.1041 70.3625 26.8652 72.4153 25.1299C74.4681 23.3945 76.7164 23.5262 78.0695 25.1269C78.8856 26.0922 78.9499 27.0853 78.7523 27.8181L78.7729 27.8425L82.0232 25.0949ZM72.708 30.0364C73.5964 31.0872 75.0114 31.0014 76.3921 29.8342C77.7851 28.6566 78.093 27.286 77.2046 26.2351C76.2543 25.111 74.7218 25.3799 73.4999 26.4129C72.278 27.4458 71.7577 28.9122 72.708 30.0364Z" fill="#010101"/>
<path d="M55 46C46 48 43.9 54.17 41.82 59.34L43.71 60L44.66 57.7C45.14 57.87 45.64 58 46 58C57 58 60 41 60 41C59 43 52 43.25 47 44.25C42 45.25 40 49.5 40 51.5C40 53.5 41.75 55.25 41.75 55.25C45 46 55 46 55 46Z" fill="#010101"/>
</svg>
