<svg width="12" height="12" viewBox="0 0 12 12" fill="none" xmlns="http://www.w3.org/2000/svg">
<path d="M1.79922 0.599976C1.64009 0.599976 1.48748 0.66319 1.37495 0.775711C1.26243 0.888233 1.19922 1.04085 1.19922 1.19998C1.19922 1.35911 1.26243 1.51172 1.37495 1.62424C1.48748 1.73676 1.64009 1.79998 1.79922 1.79998H2.53122L2.71422 2.53318C2.71604 2.54162 2.71804 2.55002 2.72022 2.55838L3.53502 5.81637L2.99922 6.35157C2.24322 7.10757 2.77842 8.39997 3.84762 8.39997H8.99922C9.15835 8.39997 9.31096 8.33676 9.42348 8.22424C9.536 8.11172 9.59922 7.9591 9.59922 7.79997C9.59922 7.64084 9.536 7.48823 9.42348 7.37571C9.31096 7.26319 9.15835 7.19997 8.99922 7.19997H3.84762L4.44762 6.59997H8.39922C8.51061 6.59992 8.6198 6.56884 8.71453 6.51024C8.80927 6.45164 8.88582 6.36782 8.93562 6.26817L10.7356 2.66818C10.7813 2.57672 10.8029 2.47511 10.7983 2.37298C10.7937 2.27085 10.7631 2.17159 10.7093 2.08461C10.6556 1.99764 10.5805 1.92584 10.4913 1.87602C10.402 1.82621 10.3015 1.80003 10.1992 1.79998H3.76722L3.58122 1.05418C3.54872 0.924428 3.47379 0.809261 3.36834 0.726969C3.2629 0.644677 3.13298 0.599979 2.99922 0.599976H1.79922ZM9.59922 9.89997C9.59922 10.1387 9.5044 10.3676 9.33561 10.5364C9.16683 10.7052 8.93791 10.8 8.69922 10.8C8.46052 10.8 8.2316 10.7052 8.06282 10.5364C7.89404 10.3676 7.79922 10.1387 7.79922 9.89997C7.79922 9.66128 7.89404 9.43236 8.06282 9.26358C8.2316 9.0948 8.46052 8.99997 8.69922 8.99997C8.93791 8.99997 9.16683 9.0948 9.33561 9.26358C9.5044 9.43236 9.59922 9.66128 9.59922 9.89997ZM3.89922 10.8C4.13791 10.8 4.36683 10.7052 4.53561 10.5364C4.7044 10.3676 4.79922 10.1387 4.79922 9.89997C4.79922 9.66128 4.7044 9.43236 4.53561 9.26358C4.36683 9.0948 4.13791 8.99997 3.89922 8.99997C3.66052 8.99997 3.4316 9.0948 3.26282 9.26358C3.09404 9.43236 2.99922 9.66128 2.99922 9.89997C2.99922 10.1387 3.09404 10.3676 3.26282 10.5364C3.4316 10.7052 3.66052 10.8 3.89922 10.8Z" fill="#6D8434"/>
</svg>
